<?xml version="1.0" encoding="UTF-8" standalone="no"?>
<svg width="651px" height="108px" viewBox="0 0 651 108" version="1.1" xmlns="http://www.w3.org/2000/svg" xmlns:xlink="http://www.w3.org/1999/xlink" xmlns:sketch="http://www.bohemiancoding.com/sketch/ns">
    <!-- Generator: Sketch 3.4 (15575) - http://www.bohemiancoding.com/sketch -->
    <title>drafty media*</title>
    <desc>Created with Sketch.</desc>
    <defs></defs>
    <g id="Page-1" stroke="none" stroke-width="1" fill="none" fill-rule="evenodd" sketch:type="MSPage">
        <g id="Desktop-HD" sketch:type="MSArtboardGroup" transform="translate(-395.000000, -60.000000)" fill="#FFFFFF">
            <path d="M417.276,145.928 C423.308,145.928 428.76,144.304 433.052,138.852 C435.024,144.768 435.952,145 441.172,145 C443.956,145 444.884,144.188 444.884,142.1 L444.884,64.728 C444.884,62.292 444.072,61.48 441.636,61.48 L436.184,61.48 C433.748,61.48 432.936,62.292 432.936,64.728 L432.936,94.076 C428.528,89.552 423.192,87.928 417.74,87.928 C400.456,87.928 395.236,103.008 395.236,116.58 C395.236,130.036 400.456,145.928 417.276,145.928 L417.276,145.928 Z M420.292,97.556 C431.544,97.556 432.82,107.416 432.82,116.696 C432.82,130.5 427.484,136.3 420.292,136.3 C409.968,136.3 407.416,124.816 407.416,116.696 C407.416,107.3 410.084,97.556 420.292,97.556 L420.292,97.556 Z M471.68,141.752 L471.68,113.448 C471.68,104.4 475.276,98.6 483.628,98.6 C487.456,98.6 489.312,100.224 490.588,100.224 C491.516,100.224 492.56,98.6 492.56,95.468 C492.56,92.336 490.24,87.928 483.048,87.928 C478.06,87.928 474,90.132 471.1,93.96 C469.36,89.436 468.084,89.204 463.444,89.204 C460.544,89.204 459.732,89.9 459.732,92.104 L459.732,141.752 C459.732,144.188 460.66,145 462.98,145 L468.432,145 C470.752,145 471.68,144.188 471.68,141.752 L471.68,141.752 Z M543.368,107.184 C543.368,92.568 534.436,87.928 521.096,87.928 C511.7,87.928 506.132,90.248 503.696,92.452 C501.492,94.192 501.144,96.164 501.144,97.44 C501.144,99.064 501.608,100.572 503,100.572 C504.624,100.572 511.004,97.672 518.196,97.672 C526.084,97.672 531.652,99.644 531.652,107.184 L531.652,113.796 L524.576,113.796 C507.756,113.796 497.78,118.088 497.78,130.5 C497.78,141.984 506.712,145.928 515.76,145.928 C523.3,145.928 528.636,143.26 532.232,139.548 C533.392,144.072 537.568,145.928 541.744,145.928 C546.964,145.928 550.212,143.376 550.212,139.084 C550.212,137.112 549.4,136.764 548.124,136.764 C544.644,136.764 543.368,136.532 543.368,131.312 L543.368,107.184 Z M510.308,129.688 C510.308,123.424 515.18,120.988 524.924,120.988 L531.652,120.988 C531.652,132.356 526.664,137.808 518.776,137.808 C514.484,137.808 510.308,135.72 510.308,129.688 L510.308,129.688 Z M562.972,141.752 C562.972,144.188 563.784,145 566.104,145 L571.672,145 C573.992,145 574.804,144.188 574.804,141.752 L574.804,98.368 L582.808,98.368 C584.78,98.368 585.36,97.556 585.36,95.816 L585.36,91.524 C585.36,89.668 584.664,89.088 582.808,89.088 L574.804,89.088 L574.804,79.228 C574.804,73.66 576.776,70.064 581.996,70.064 C585.476,70.064 587.68,71.688 588.84,71.688 C589.536,71.688 590.696,70.992 590.696,68.556 C590.696,64.38 586.752,60.32 578.748,60.32 C568.54,60.32 562.856,66.584 562.856,77.604 L562.856,89.088 L557.984,89.088 C556.012,89.088 555.432,89.9 555.432,91.64 L555.432,95.932 C555.432,97.788 556.128,98.368 557.984,98.368 L562.856,98.368 L562.972,137.344 L562.972,141.752 Z M609.256,77.372 C609.256,73.66 608.676,73.196 604.616,73.196 C601.484,73.196 599.976,74.356 598.468,88.624 L598.352,89.088 L593.248,89.088 C591.392,89.088 590.812,89.9 590.812,91.64 L590.812,95.932 C590.812,97.788 591.392,98.368 593.248,98.368 L597.308,98.368 L597.308,129.572 C597.308,139.78 602.528,145.58 611.924,145.58 C620.044,145.58 623.988,141.52 623.988,137.344 C623.988,134.908 622.712,134.212 622.132,134.212 C621.088,134.212 618.652,135.836 615.288,135.836 C610.88,135.836 609.488,132.704 609.256,127.948 L609.256,98.368 L618.768,98.368 C620.74,98.368 621.32,97.556 621.32,95.816 L621.32,91.524 C621.32,89.668 620.624,89.088 618.768,89.088 L609.256,89.088 L609.256,77.372 Z M669.808,89.088 C666.676,89.088 666.096,89.9 665.4,93.032 L653.336,134.328 L641.388,93.496 C640.576,90.016 640.112,89.088 636.864,89.088 L630.716,89.088 C627.932,89.088 627.352,90.364 628.28,92.8 L647.188,145 L646.144,148.48 C642.896,158.108 638.024,159.152 632.224,159.152 L630.484,159.152 C628.86,159.152 628.28,159.964 628.28,161.82 C628.28,165.416 631.18,167.736 637.444,167.736 C647.188,167.736 653.8,162.864 661.224,141.404 L678.276,92.8 C679.204,90.132 678.624,89.088 675.956,89.088 L669.808,89.088 Z M774.44,141.752 C774.44,144.188 775.368,145 777.688,145 L783.14,145 C785.46,145 786.388,144.188 786.388,141.752 L786.388,109.388 C786.388,98.948 783.952,87.928 768.292,87.928 C763.072,87.928 757.272,90.364 753.328,94.772 C750.892,90.712 746.832,87.928 740.22,87.928 C733.84,87.928 729.084,90.944 725.256,95.004 C723.4,89.552 722.124,89.088 717.832,89.088 C714.816,89.088 713.54,89.552 713.54,92.104 L713.54,141.752 C713.54,144.188 714.468,145 716.788,145 L722.24,145 C724.56,145 725.488,144.188 725.488,141.752 L725.488,105.908 C727.576,101.384 730.824,97.672 735.928,97.672 C741.96,97.672 744.396,102.08 744.396,108.808 L744.396,141.752 C744.396,144.188 745.324,145 747.644,145 L753.212,145 C755.416,145 756.344,144.188 756.344,141.752 L756.344,108.576 C756.344,107.416 756.228,106.14 756.112,104.864 C757.852,101.152 761.332,97.672 766.32,97.672 C772.468,97.672 774.44,102.428 774.44,107.532 L774.44,141.752 Z M841.72,120.988 C845.664,120.988 846.244,120.292 846.244,115.884 C846.244,96.628 837.312,87.928 822.928,87.928 C806.688,87.928 798.22,99.064 798.22,116.928 C798.22,137.808 809.472,146.392 825.712,146.392 C832.208,146.392 838.356,145.116 842.068,142.564 C844.04,141.172 845.432,139.432 845.432,136.88 C845.432,135.024 844.736,133.864 843.344,133.864 C841.604,133.864 834.528,136.996 826.524,136.996 C817.94,136.996 810.748,133.284 810.052,120.988 L841.72,120.988 Z M823.16,96.86 C831.28,96.86 834.876,101.964 834.876,113.1 L810.052,113.1 C810.284,103.356 814.228,96.86 823.16,96.86 L823.16,96.86 Z M878.144,145.928 C884.176,145.928 889.628,144.304 893.92,138.852 C895.892,144.768 896.82,145 902.04,145 C904.824,145 905.752,144.188 905.752,142.1 L905.752,64.728 C905.752,62.292 904.94,61.48 902.504,61.48 L897.052,61.48 C894.616,61.48 893.804,62.292 893.804,64.728 L893.804,94.076 C889.396,89.552 884.06,87.928 878.608,87.928 C861.324,87.928 856.104,103.008 856.104,116.58 C856.104,130.036 861.324,145.928 878.144,145.928 L878.144,145.928 Z M881.16,97.556 C892.412,97.556 893.688,107.416 893.688,116.696 C893.688,130.5 888.352,136.3 881.16,136.3 C870.836,136.3 868.284,124.816 868.284,116.696 C868.284,107.3 870.952,97.556 881.16,97.556 L881.16,97.556 Z M920.716,141.752 C920.716,144.188 921.644,145 923.964,145 L929.416,145 C931.736,145 932.664,144.188 932.664,141.752 L932.664,92.336 C932.664,89.9 931.968,89.088 929.416,89.088 L923.964,89.088 C921.528,89.088 920.716,89.9 920.716,92.336 L920.716,141.752 Z M920.136,74.82 C920.136,77.256 921.064,78.068 923.384,78.068 L930.112,78.068 C932.432,78.068 933.36,77.256 933.36,74.82 L933.36,68.208 C933.36,65.888 932.432,64.96 930.112,64.96 L923.384,64.96 C921.064,64.96 920.136,65.888 920.136,68.208 L920.136,74.82 Z M989.504,107.184 C989.504,92.568 980.572,87.928 967.232,87.928 C957.836,87.928 952.268,90.248 949.832,92.452 C947.628,94.192 947.28,96.164 947.28,97.44 C947.28,99.064 947.744,100.572 949.136,100.572 C950.76,100.572 957.14,97.672 964.332,97.672 C972.22,97.672 977.788,99.644 977.788,107.184 L977.788,113.796 L970.712,113.796 C953.892,113.796 943.916,118.088 943.916,130.5 C943.916,141.984 952.848,145.928 961.896,145.928 C969.436,145.928 974.772,143.26 978.368,139.548 C979.528,144.072 983.704,145.928 987.88,145.928 C993.1,145.928 996.348,143.376 996.348,139.084 C996.348,137.112 995.536,136.764 994.26,136.764 C990.78,136.764 989.504,136.532 989.504,131.312 L989.504,107.184 Z M956.444,129.688 C956.444,123.424 961.316,120.988 971.06,120.988 L977.788,120.988 C977.788,132.356 972.8,137.808 964.912,137.808 C960.62,137.808 956.444,135.72 956.444,129.688 L956.444,129.688 Z M1022.448,61.48 C1020.94,61.48 1019.664,62.176 1020.012,64.032 L1021.868,80.968 L1007.136,75.052 C1005.512,74.24 1004.468,75.4 1004.12,76.908 L1003.192,80.504 C1002.728,81.896 1003.076,83.404 1004.932,83.636 L1020.36,85.84 L1008.064,97.672 C1006.788,98.948 1007.252,100.34 1008.528,101.268 L1011.312,103.588 C1012.588,104.748 1013.98,104.864 1014.792,103.24 L1024.304,88.624 L1033.816,103.24 C1034.744,104.864 1036.136,104.632 1037.412,103.704 L1040.312,101.268 C1041.472,100.34 1041.936,98.948 1040.544,97.788 L1028.364,85.84 L1043.908,83.636 C1045.648,83.404 1045.996,81.896 1045.532,80.504 L1044.604,76.908 C1044.14,75.4 1043.212,74.24 1041.588,75.052 L1026.624,80.968 L1028.712,64.032 C1029.06,62.176 1027.668,61.48 1026.16,61.48 L1022.448,61.48 Z" id="drafty-media*" sketch:type="MSShapeGroup"></path>
        </g>
    </g>
</svg>